<svg viewBox="0 0 719.177 699.474" xmlns="http://www.w3.org/2000/svg" xmlns:xlink="http://www.w3.org/1999/xlink" width="719.177246" height="699.473633" fill="none">
	<defs>
		<clipPath id="clipPath_0">
			<rect width="585.486267" height="678.020447" x="68.962402" y="9.851562" fill="rgb(255,255,255)" />
		</clipPath>
		<linearGradient id="paint_linear_0" x1="30.1213379" x2="568.6297" y1="-19.7026062" y2="803.524902" gradientUnits="userSpaceOnUse">
			<stop stop-color="rgb(186,186,186)" offset="0" stop-opacity="1" />
			<stop stop-color="rgb(61,70,75)" offset="0.527426183" stop-opacity="1" />
		</linearGradient>
		<linearGradient id="paint_linear_1" x1="195.425629" x2="719.123779" y1="125.367371" y2="529.040649" gradientUnits="userSpaceOnUse">
			<stop stop-color="rgb(255,240,170)" offset="0.576923072" stop-opacity="0" />
		</linearGradient>
		<linearGradient id="paint_linear_2" x1="310.606201" x2="326.808533" y1="315.76413" y2="844.637573" gradientUnits="userSpaceOnUse">
			<stop stop-color="rgb(186,186,186)" offset="0" stop-opacity="1" />
			<stop stop-color="rgb(226,226,226)" offset="0.71934998" stop-opacity="1" />
		</linearGradient>
	</defs>
	<rect id="wrap" width="719.177612" height="699.474060" x="0.000488" y="0.000000" />
	<g id="kapibara" customFrame="url(#clipPath_0)">
		<rect id="kapibara" width="585.486267" height="678.020447" x="68.962402" y="9.851562" />
		<path id="Vector" d="M654.449 122.578L654.449 231.938C654.449 635.717 361.707 687.872 361.707 687.872C361.707 687.872 68.9624 635.717 68.9624 231.938L68.9624 122.578C255.719 122.578 361.704 9.85156 361.704 9.85156C361.704 9.85156 474.433 122.578 654.449 122.578Z" fill="url(#paint_linear_0)" fill-rule="nonzero" />
		<path id="Vector 573" d="M274.25 208.742L255.674 295.145L192.109 426.916L248.311 514.185L369.519 546.772L484.805 514.185L546.772 426.049L481.923 295.145L470.395 208.742L369.519 177.331L274.25 208.742Z" fill="url(#paint_linear_1)" fill-rule="evenodd" />
		<path id="Union" d="M262.32 144.2C262.021 145.052 261.85 145.95 261.808 146.893L259.132 206.914C259.096 207.733 259.161 208.53 259.327 209.305L259.327 209.305L259.328 209.307L259.328 209.307C259.437 209.813 259.589 210.31 259.784 210.797L241.91 293.169L178.351 423.711C177.924 424.589 177.618 425.491 177.435 426.417L177.435 426.417L177.435 426.418C177.251 427.344 177.189 428.294 177.249 429.269C177.309 430.244 177.488 431.179 177.784 432.076L177.784 432.076L177.784 432.077L177.784 432.077L177.784 432.078C178.08 432.974 178.494 433.831 179.026 434.65L234.931 520.657C235.307 521.235 235.728 521.769 236.194 522.26C236.661 522.751 237.172 523.198 237.73 523.602C238.288 524.007 238.873 524.355 239.485 524.646L239.486 524.646L239.495 524.65C240.103 524.938 240.738 525.171 241.399 525.347L363.094 557.762C364.074 558.024 365.054 558.151 366.032 558.145C367.009 558.138 367.985 557.998 368.961 557.725L484.711 525.309C485.976 524.955 487.114 524.422 488.127 523.709L488.131 523.706C489.142 522.994 490.027 522.102 490.787 521.032L552.469 434.108C553.064 433.27 553.53 432.386 553.866 431.455L553.867 431.454C554.203 430.523 554.411 429.545 554.49 428.521C554.568 427.499 554.513 426.505 554.324 425.536L554.322 425.525L554.322 425.522C554.131 424.551 553.806 423.607 553.347 422.689L488.725 293.443L477.403 209.376C477.294 208.567 477.107 207.794 476.84 207.055L471.357 146.469C471.273 145.536 471.063 144.653 470.729 143.819L470.729 143.819L470.729 143.819C470.403 143.006 469.958 142.241 469.394 141.523C468.87 140.857 468.28 140.28 467.624 139.791L467.624 139.791C466.957 139.294 466.221 138.89 465.417 138.577C464.613 138.265 463.797 138.067 462.969 137.982C462.156 137.9 461.331 137.927 460.494 138.065C459.594 138.214 458.749 138.478 457.96 138.857L457.96 138.857L457.96 138.857C457.151 139.246 456.399 139.756 455.707 140.388L410.197 181.882L369.276 169.257C368.15 168.91 367.026 168.741 365.903 168.75L365.9 168.75C364.778 168.76 363.657 168.947 362.538 169.313L325.567 181.39C325.506 181.335 325.444 181.281 325.381 181.227L277.255 140.179C276.537 139.566 275.764 139.079 274.937 138.716L274.937 138.716C274.13 138.362 273.271 138.127 272.36 138.011C271.515 137.903 270.685 137.907 269.871 138.021L269.871 138.021C269.043 138.137 268.231 138.368 267.436 138.714C266.64 139.059 265.918 139.495 265.268 140.021L265.267 140.022L265.266 140.023C264.627 140.54 264.06 141.144 263.562 141.835C263.026 142.58 262.612 143.368 262.32 144.199L262.32 144.2ZM303.37 185.552L278.618 164.441L277.242 195.311L303.37 185.552ZM458.257 196.709L455.343 164.503L429.687 187.895L458.257 196.709ZM276.671 215.852L258.921 297.653C258.825 298.092 258.705 298.521 258.559 298.942L258.559 298.943L258.558 298.943L258.558 298.945L258.558 298.945C258.413 299.36 258.244 299.767 258.051 300.165L195.748 428.127L248.317 509.002L365.916 540.327L477.774 509.001L535.899 427.091L472.525 300.343C472.249 299.79 472.021 299.222 471.841 298.639L471.841 298.637L471.841 298.636C471.662 298.056 471.532 297.461 471.45 296.852L460.983 219.131L415.088 201.783L366.05 186.655L276.671 215.852ZM304.565 263.844C304.565 262.227 303.253 260.915 301.636 260.915L284.061 260.915C282.443 260.915 281.132 262.227 281.132 263.844L281.132 281.419C281.132 283.037 282.443 284.349 284.061 284.349L301.636 284.349C303.253 284.349 304.565 283.037 304.565 281.419L304.565 263.844ZM451.007 263.844C451.007 262.227 449.695 260.915 448.077 260.915L430.503 260.915C428.885 260.915 427.573 262.227 427.573 263.844L427.573 281.419C427.573 283.037 428.885 284.349 430.503 284.349L448.077 284.349C449.695 284.349 451.007 283.037 451.007 281.419L451.007 263.844ZM295.694 364.899L295.694 451.309L333.08 451.309L357.211 438.669L357.211 410.301L374.785 410.301L374.785 439.205L393.491 451.309L433.364 451.309L433.364 364.899C433.364 326.883 402.546 296.064 364.529 296.064C326.513 296.064 295.694 326.883 295.694 364.899ZM318.778 377.953L312.167 366.053C311.65 365.123 311.276 364.159 311.045 363.162L311.045 363.162L311.045 363.162C310.814 362.165 310.726 361.135 310.781 360.071C310.837 359.008 311.031 357.993 311.363 357.025C311.696 356.057 312.168 355.137 312.779 354.265L320.621 343.061C321.111 342.361 321.666 341.732 322.285 341.174L322.285 341.173C322.871 340.645 323.515 340.18 324.217 339.779C324.895 339.392 325.596 339.082 326.323 338.847L326.324 338.847L326.325 338.847C327.076 338.605 327.853 338.445 328.656 338.366C329.459 338.288 330.252 338.294 331.036 338.386L331.053 338.388C331.806 338.477 332.55 338.645 333.284 338.892C334.05 339.149 334.771 339.48 335.449 339.884L335.45 339.885L335.451 339.885C336.166 340.313 336.832 340.823 337.448 341.415L365.115 367.974L385.307 342.468C385.824 341.815 386.397 341.234 387.029 340.723L387.029 340.722L387.031 340.72L387.035 340.718C387.634 340.233 388.285 339.812 388.988 339.454C389.669 339.108 390.371 338.836 391.093 338.639L391.093 338.639L391.098 338.637C391.841 338.434 392.605 338.31 393.39 338.265C394.177 338.219 394.952 338.254 395.714 338.371L395.715 338.371L395.715 338.371L395.715 338.371L395.716 338.371C396.456 338.484 397.184 338.673 397.9 338.938C398.641 339.212 399.337 339.556 399.99 339.969L399.99 339.969C400.677 340.405 401.315 340.917 401.905 341.506L413.44 353.041C414.318 353.92 415.02 354.886 415.546 355.941L415.546 355.941C416.071 356.996 416.42 358.138 416.592 359.368C416.764 360.598 416.743 361.792 416.528 362.95L416.527 362.951L416.527 362.953C416.311 364.11 415.902 365.232 415.299 366.317L408.835 377.953L393.471 369.418L397.575 362.031L394.595 359.051L374.493 384.442C373.983 385.086 373.417 385.662 372.794 386.169L372.788 386.174C372.198 386.654 371.557 387.072 370.866 387.428C370.196 387.773 369.506 388.045 368.796 388.246L368.795 388.246L368.79 388.248C368.056 388.455 367.301 388.585 366.524 388.638C365.747 388.691 364.981 388.665 364.226 388.559L364.225 388.559L364.221 388.559L364.221 388.559C363.489 388.456 362.768 388.279 362.057 388.028C361.322 387.769 360.628 387.44 359.977 387.043L359.976 387.043L359.97 387.039C359.287 386.622 358.649 386.13 358.058 385.562L330.705 359.303L329.488 361.042L334.141 369.418L318.778 377.953ZM339.958 467.546L365.531 454.151L385.396 467.004C386.364 467.631 387.379 468.101 388.44 468.414C389.5 468.727 390.607 468.884 391.761 468.884L400.059 468.884L394.887 471.004L394.885 471.005L394.867 471.013C394.024 471.357 392.894 471.793 391.477 472.319C388.587 473.392 385.726 474.369 382.893 475.252C374.274 477.938 367.729 479.233 363.256 479.138C358.718 479.041 352.59 477.694 344.871 475.097C342.351 474.249 339.833 473.321 337.318 472.313C336.093 471.822 335.13 471.422 334.43 471.111L334.412 471.103L329.409 468.884L334.521 468.884C335.482 468.884 336.416 468.772 337.322 468.549L337.323 468.549C338.229 468.326 339.107 467.992 339.958 467.546ZM433.364 476.695C433.364 496.646 417.19 512.821 397.238 512.821L331.82 512.821C311.869 512.821 295.694 496.646 295.694 476.695L295.694 468.884L325.783 468.884L319.252 483.604L327.285 487.168L327.303 487.176C330.745 488.702 334.733 490.228 339.266 491.754C348.682 494.922 356.554 496.574 362.882 496.709C369.265 496.844 377.678 495.285 388.122 492.031C391.253 491.056 394.41 489.977 397.593 488.795C399.197 488.2 400.51 487.693 401.534 487.274L401.55 487.267L401.552 487.266L409.683 483.933L403.513 468.884L433.364 468.884L433.364 476.695Z" fill="url(#paint_linear_2)" fill-rule="evenodd" />
	</g>
</svg>
